<svg width="118" height="43" viewBox="0 0 118 43" fill="none" xmlns="http://www.w3.org/2000/svg">
<path d="M76.6626 1.47678C76.7014 1.45016 76.7322 1.41855 76.7532 1.38377C76.7742 1.34898 76.785 1.3117 76.785 1.27405C76.785 1.23639 76.7742 1.19911 76.7532 1.16432C76.7322 1.12953 76.7015 1.09792 76.6627 1.0713C76.6239 1.04467 76.5778 1.02355 76.5271 1.00914C76.4764 0.994726 76.4221 0.987307 76.3672 0.987305C76.3123 0.987302 76.258 0.994716 76.2073 1.00912C76.1566 1.02353 76.1105 1.04465 76.0717 1.07127L70.5477 4.86183C70.3371 4.79893 70.1039 4.78091 69.8783 4.81012C69.6526 4.83934 69.445 4.91443 69.2823 5.02565L66.8646 6.68446L68.4822 7.79429L70.8998 6.13548C71.0619 6.02389 71.1714 5.88142 71.214 5.7266C71.2565 5.57177 71.2303 5.41174 71.1386 5.26729L76.6626 1.47678Z" fill="#45B4E4"/>
<path d="M79.8525 3.71584C79.4534 3.13802 77.9239 1.5877 77.8589 1.52199C77.8207 1.48318 77.7692 1.4514 77.7089 1.4294C77.6487 1.40741 77.5815 1.39589 77.5132 1.39584C77.445 1.39583 77.3778 1.40729 77.3175 1.42921C77.2572 1.45113 77.2057 1.48285 77.1674 1.52159C77.1022 1.58747 75.567 3.14198 75.1731 3.7163C74.9515 4.03947 74.7151 4.42354 74.7151 4.89242C74.7151 5.40158 75.0099 5.8899 75.5346 6.24994C76.0593 6.60997 76.771 6.81224 77.5131 6.81224C78.2552 6.81224 78.9669 6.60997 79.4916 6.24994C80.0164 5.8899 80.3112 5.40158 80.3112 4.89242C80.3111 4.41838 80.1034 4.0791 79.8525 3.71584Z" fill="#45B4E4"/>
<path d="M44.8002 18.1636C44.7335 18.1174 44.6541 18.0807 44.5667 18.0557C44.4792 18.0306 44.3854 18.0176 44.2906 18.0174C44.1958 18.0173 44.1019 18.03 44.0143 18.0548C43.9266 18.0797 43.847 18.1161 43.78 18.1621C43.713 18.2081 43.6599 18.2627 43.6237 18.3228C43.5875 18.383 43.569 18.4474 43.5692 18.5124C43.5694 18.5775 43.5884 18.6418 43.6249 18.7019C43.6615 18.7619 43.715 18.8163 43.7823 18.8621L50.7438 23.6386C50.8788 23.7312 51.0619 23.7832 51.2528 23.7832C51.4437 23.7832 51.6268 23.7312 51.7618 23.6386C51.8968 23.5459 51.9726 23.4203 51.9726 23.2893C51.9726 23.1584 51.8968 23.0327 51.7618 22.9401L44.8002 18.1636Z" fill="#45B4E4"/>
<path d="M42.7805 23.7157L46.226 21.3517L47.1072 21.9563L43.6617 24.3203L42.7805 23.7157Z" fill="#45B4E4"/>
<path d="M40.4258 22.9092C40.3089 22.829 40.1504 22.7839 39.9851 22.7839C39.8199 22.7839 39.6613 22.829 39.5445 22.9092C39.4276 22.9894 39.3619 23.0981 39.3619 23.2115C39.3619 23.3249 39.4276 23.4337 39.5445 23.5139L43.9614 26.5445C44.0783 26.6246 44.2368 26.6697 44.4021 26.6697C44.5674 26.6697 44.7259 26.6246 44.8428 26.5445C44.9597 26.4643 45.0253 26.3555 45.0253 26.2421C45.0253 26.1287 44.9597 26.0199 44.8428 25.9397L40.4258 22.9092Z" fill="#45B4E4"/>
<path d="M65.9538 6.87556C65.8991 6.83803 65.8342 6.80826 65.7628 6.78795C65.6914 6.76765 65.6148 6.75719 65.5375 6.75719C65.4602 6.75719 65.3836 6.76765 65.3122 6.78795C65.2407 6.80826 65.1758 6.83803 65.1212 6.87556L63.181 8.20644L66.2708 10.3264L68.2107 8.99539C68.321 8.91959 68.3829 8.81687 68.3829 8.70977C68.3829 8.60268 68.321 8.49996 68.2107 8.42416L65.9538 6.87556Z" fill="#45B4E4"/>
<path d="M62.1254 8.29343C62.0415 8.23587 61.942 8.19022 61.8324 8.15907C61.7228 8.12792 61.6054 8.11189 61.4867 8.11189C61.3681 8.11189 61.2507 8.12792 61.1411 8.15907C61.0315 8.19022 60.932 8.23587 60.8481 8.29343L46.2226 18.3284L51.521 21.9638L53.4436 20.645L51.5304 19.3321C51.4914 19.3055 51.4603 19.2739 51.4391 19.2391C51.4179 19.2042 51.4069 19.1669 51.4067 19.1291C51.4066 19.0913 51.4174 19.0539 51.4384 19.019C51.4594 18.9841 51.4902 18.9524 51.5291 18.9257C51.5681 18.899 51.6143 18.8779 51.6651 18.8635C51.716 18.8491 51.7705 18.8417 51.8255 18.8418C51.8805 18.8418 51.935 18.8494 51.9858 18.8639C52.0365 18.8785 52.0826 18.8998 52.1214 18.9266L54.0344 20.2392L55.2348 19.4156L54.426 18.8607C54.3476 18.8069 54.3036 18.734 54.3036 18.6579C54.3036 18.5819 54.3476 18.509 54.426 18.4552C54.5043 18.4014 54.6106 18.3712 54.7214 18.3712C54.8323 18.3712 54.9386 18.4014 55.0169 18.4552L55.826 19.0101L57.0263 18.1865L55.1133 16.8739C55.0349 16.8202 54.9909 16.7472 54.9909 16.6712C54.9909 16.5951 55.0349 16.5222 55.1133 16.4684C55.1917 16.4147 55.298 16.3844 55.4088 16.3844C55.5196 16.3844 55.6259 16.4147 55.7043 16.4684L57.6172 17.781L58.8178 16.9574L58.009 16.4025C57.9699 16.3759 57.9389 16.3443 57.9177 16.3095C57.8965 16.2746 57.8855 16.2373 57.8853 16.1995C57.8852 16.1617 57.896 16.1243 57.917 16.0894C57.938 16.0545 57.9688 16.0228 58.0077 15.9961C58.0466 15.9694 58.0929 15.9483 58.1437 15.9339C58.1946 15.9195 58.2491 15.9121 58.3041 15.9122C58.3591 15.9123 58.4136 15.9198 58.4644 15.9344C58.5151 15.9489 58.5612 15.9702 58.6 15.997L59.4088 16.5519L60.6091 15.7283L58.6961 14.4158C58.6573 14.3892 58.6266 14.3576 58.6055 14.3228C58.5845 14.288 58.5737 14.2507 58.5737 14.2131C58.5737 14.1754 58.5845 14.1381 58.6055 14.1033C58.6265 14.0686 58.6573 14.0369 58.6961 14.0103C58.7349 13.9837 58.781 13.9626 58.8317 13.9482C58.8824 13.9338 58.9367 13.9263 58.9916 13.9263C59.0465 13.9263 59.1008 13.9337 59.1515 13.9481C59.2022 13.9626 59.2483 13.9837 59.2871 14.0103L61.1996 15.3228L62.3999 14.4992L61.5911 13.9443C61.5128 13.8905 61.4687 13.8176 61.4688 13.7415C61.4688 13.6655 61.5128 13.5926 61.5912 13.5388C61.6695 13.485 61.7758 13.4548 61.8867 13.4548C61.9975 13.4549 62.1038 13.4851 62.1821 13.5388L62.9909 14.0937L64.1914 13.27L62.2785 11.9574C62.2007 11.9036 62.1572 11.8308 62.1574 11.755C62.1576 11.6792 62.2017 11.6065 62.2798 11.5529C62.3579 11.4993 62.4638 11.4691 62.5743 11.4689C62.6849 11.4687 62.791 11.4986 62.8694 11.552L64.7825 12.8646L66.1466 11.9285C66.2305 11.871 66.2971 11.8027 66.3425 11.7275C66.388 11.6524 66.4113 11.5718 66.4113 11.4904C66.4113 11.409 66.388 11.3284 66.3425 11.2532C66.2971 11.178 66.2305 11.1097 66.1466 11.0522L62.1254 8.29343ZM60.623 10.2214L54.8447 14.186C54.7663 14.2398 54.66 14.27 54.5492 14.2699C54.4384 14.2699 54.3321 14.2397 54.2537 14.186C54.1754 14.1322 54.1313 14.0593 54.1313 13.9832C54.1314 13.9072 54.1754 13.8342 54.2538 13.7805L60.032 9.81594C60.0708 9.78912 60.1168 9.76782 60.1676 9.75326C60.2184 9.7387 60.2728 9.73116 60.3279 9.73107C60.3829 9.73099 60.4374 9.73837 60.4883 9.75278C60.5391 9.76719 60.5853 9.78835 60.6243 9.81505C60.6632 9.84175 60.694 9.87345 60.715 9.90835C60.736 9.94325 60.7468 9.98065 60.7466 10.0184C60.7465 10.0562 60.7355 10.0935 60.7143 10.1284C60.6931 10.1632 60.662 10.1948 60.623 10.2214ZM61.6571 9.51186C61.5928 9.55596 61.5109 9.58599 61.4217 9.59815C61.3326 9.61032 61.2402 9.60407 61.1562 9.58019C61.0722 9.55632 61.0004 9.5159 60.9499 9.46404C60.8994 9.41218 60.8724 9.3512 60.8724 9.28883C60.8724 9.22646 60.8994 9.16549 60.9499 9.11363C61.0004 9.06177 61.0722 9.02134 61.1562 8.99747C61.2402 8.9736 61.3326 8.96735 61.4217 8.97951C61.5109 8.99168 61.5928 9.02171 61.6571 9.06581C61.7001 9.09498 61.7342 9.12973 61.7575 9.16802C61.7807 9.20632 61.7927 9.2474 61.7927 9.28889C61.7926 9.33038 61.7806 9.37146 61.7572 9.40973C61.7339 9.44801 61.7001 9.48272 61.6571 9.51186Z" fill="#45B4E4"/>
<path d="M14.6862 42.1197L2.25085 34.4131L3.20913 34.7801L3.27598 41.6609H0V29.9634H0.133714L12.3017 37.6395L11.5885 37.4254L11.5217 30.4069H14.7754V42.1197H14.6862Z" fill="#45B4E4"/>
<path d="M21.629 41.982C20.7525 41.982 20.0171 41.7986 19.4228 41.4316C18.8285 41.0544 18.5165 40.5702 18.4868 39.9789V34.9788H21.6068V39.1838C21.6365 39.4794 21.7479 39.719 21.941 39.9025C22.1342 40.0758 22.461 40.1624 22.9216 40.1624C23.3822 40.1624 23.7759 40.0554 24.1027 39.8413C24.4445 39.6273 24.7045 39.3367 24.8827 38.9698C25.0759 38.5926 25.1725 38.1695 25.1725 37.7006V34.9788H28.2924V41.6609H25.4622L25.217 40.4377L25.2616 40.5753C25.0387 40.8505 24.7565 41.0952 24.4147 41.3092C24.073 41.5233 23.6645 41.6864 23.189 41.7986C22.7285 41.9209 22.2085 41.982 21.629 41.982Z" fill="#45B4E4"/>
<path d="M34.3092 34.9788L34.5989 36.8137L34.5321 36.5385C34.8143 36.1409 35.2006 35.8045 35.6909 35.5293C36.1812 35.2439 36.664 35.0247 37.1395 34.8718C37.6298 34.7189 38.0012 34.6424 38.2538 34.6424L38.0978 36.7832C37.3698 36.722 36.7458 36.8036 36.2258 37.0278C35.7058 37.2521 35.3046 37.5477 35.0223 37.9147C34.7401 38.2817 34.5989 38.6588 34.5989 39.0462V41.6609H31.5012V34.9788H34.3092Z" fill="#45B4E4"/>
<path d="M43.8063 41.7986C43.0041 41.7986 42.2538 41.7017 41.5555 41.508C40.8721 41.3144 40.2927 41.0442 39.8172 40.6976L41.1098 39.5202C41.5852 39.8158 42.0235 40.0299 42.4246 40.1624C42.8406 40.2848 43.2121 40.3459 43.5389 40.3459C43.7915 40.3459 44.0143 40.3306 44.2075 40.3001C44.4155 40.2593 44.5789 40.2032 44.6978 40.1319C44.8166 40.0503 44.8761 39.9484 44.8761 39.826C44.8761 39.6527 44.7721 39.5151 44.5641 39.4132C44.3709 39.3112 44.1183 39.2297 43.8063 39.1685C43.4943 39.0972 43.1601 39.0258 42.8035 38.9545C41.9121 38.7608 41.2658 38.4804 40.8646 38.1135C40.4784 37.7363 40.2852 37.3285 40.2852 36.8902C40.2852 36.5538 40.4115 36.2174 40.6641 35.881C40.9315 35.5344 41.3475 35.249 41.9121 35.0247C42.4915 34.7903 43.2343 34.673 44.1406 34.673C44.9578 34.673 45.6486 34.7291 46.2132 34.8412C46.7778 34.9534 47.3126 35.1368 47.8178 35.3917L46.6366 36.6455C46.3543 36.4926 46.0349 36.3652 45.6783 36.2633C45.3366 36.1511 45.0172 36.09 44.7201 36.0798C44.4526 36.0696 44.2223 36.09 44.0292 36.1409C43.8509 36.1919 43.7098 36.2582 43.6058 36.3397C43.5018 36.4213 43.4498 36.5079 43.4498 36.5997C43.4349 36.7934 43.5389 36.9463 43.7618 37.0584C43.9995 37.1705 44.2966 37.2572 44.6532 37.3183C45.0098 37.3795 45.3589 37.4509 45.7006 37.5324C46.1761 37.6343 46.5846 37.772 46.9263 37.9453C47.268 38.1186 47.528 38.3275 47.7063 38.5722C47.8995 38.8066 47.996 39.0921 47.996 39.4285C47.996 39.8362 47.84 40.2236 47.528 40.5906C47.2309 40.9474 46.7703 41.2379 46.1463 41.4622C45.5372 41.6864 44.7572 41.7986 43.8063 41.7986Z" fill="#45B4E4"/>
<path d="M55.4008 41.8444C54.2122 41.8444 53.2019 41.6915 52.3699 41.3857C51.5528 41.0799 50.9288 40.6568 50.4979 40.1166C50.0671 39.5763 49.8517 38.9545 49.8517 38.2511C49.8517 37.5783 50.1042 36.9717 50.6094 36.4315C51.1145 35.8912 51.7905 35.4631 52.6374 35.147C53.4842 34.8208 54.4276 34.6577 55.4676 34.6577C56.8642 34.6577 58.0082 34.9381 58.8996 35.4987C59.8059 36.0492 60.3927 36.8494 60.6602 37.8994L53.0831 39.5508L52.3922 38.3887L57.8745 37.1196L57.2282 37.3183C57.1093 37.0533 56.8939 36.8239 56.5819 36.6303C56.2848 36.4264 55.8316 36.3244 55.2225 36.3244C54.7619 36.3244 54.3534 36.4009 53.9968 36.5538C53.6551 36.6965 53.3876 36.9055 53.1945 37.1807C53.0162 37.4458 52.9271 37.7618 52.9271 38.1288C52.9271 38.5467 53.0385 38.8984 53.2614 39.1838C53.4842 39.4591 53.7888 39.668 54.1751 39.8107C54.5614 39.9535 54.9922 40.0248 55.4676 40.0248C55.8093 40.0248 56.1362 39.984 56.4482 39.9025C56.7751 39.8209 57.0945 39.7139 57.4065 39.5814L58.7882 41.1716C58.2682 41.3755 57.7036 41.5386 57.0945 41.6609C56.5002 41.7833 55.9356 41.8444 55.4008 41.8444Z" fill="#45B4E4"/>
<path d="M62.036 41.6609L69.0782 30.1469H69.2119L76.2319 41.6609H73.7582L68.4988 32.4711L70.0365 31.7831L64.1531 41.6609H62.036ZM66.1588 37.4712H72.1536L72.8668 38.7557H65.5348L66.1588 37.4712Z" fill="#45B4E4"/>
<path d="M81.3391 41.7833C80.6854 41.7833 80.0466 41.7068 79.4226 41.5539C78.8134 41.3908 78.3083 41.1512 77.9071 40.8352L78.7763 40.0095C79.1626 40.2644 79.5563 40.4581 79.9574 40.5906C80.3734 40.7129 80.782 40.7741 81.1831 40.7741C81.4803 40.7741 81.7551 40.7486 82.0077 40.6976C82.2603 40.6466 82.4608 40.5651 82.6094 40.453C82.7728 40.3306 82.8545 40.1675 82.8545 39.9637C82.8545 39.7394 82.7431 39.561 82.5203 39.4285C82.3123 39.296 82.0374 39.1889 81.6957 39.1074C81.3688 39.0258 81.0197 38.9494 80.6483 38.878C79.8906 38.7047 79.3111 38.4652 78.91 38.1593C78.5089 37.8535 78.3083 37.4814 78.3083 37.0431C78.3083 36.7067 78.4271 36.3958 78.6649 36.1104C78.9174 35.8147 79.2814 35.5752 79.7569 35.3917C80.2471 35.2082 80.8488 35.1165 81.562 35.1165C82.2008 35.1165 82.7728 35.1725 83.278 35.2847C83.7831 35.3866 84.2585 35.5599 84.7042 35.8045L83.8797 36.6914C83.6123 36.4977 83.2928 36.355 82.9214 36.2633C82.55 36.1715 82.2157 36.1206 81.9185 36.1104C81.666 36.1002 81.4208 36.1257 81.1831 36.1868C80.9603 36.248 80.7746 36.3346 80.626 36.4468C80.4774 36.5589 80.4031 36.6914 80.4031 36.8443C80.4031 37.0584 80.5071 37.2317 80.7151 37.3642C80.9231 37.4967 81.1906 37.6038 81.5174 37.6853C81.8591 37.7567 82.1934 37.8331 82.5203 37.9147C82.9808 38.0064 83.3894 38.1288 83.746 38.2817C84.1025 38.4346 84.3848 38.6232 84.5928 38.8474C84.8157 39.0717 84.9271 39.352 84.9271 39.6884C84.9271 40.0656 84.7934 40.4173 84.526 40.7435C84.2734 41.0595 83.8797 41.3144 83.3448 41.508C82.8248 41.6915 82.1563 41.7833 81.3391 41.7833Z" fill="#45B4E4"/>
<path d="M90.4144 41.7833C89.7607 41.7833 89.1218 41.7068 88.4979 41.5539C87.8887 41.3908 87.3836 41.1512 86.9824 40.8352L87.8516 40.0095C88.2379 40.2644 88.6316 40.4581 89.0327 40.5906C89.4487 40.7129 89.8573 40.7741 90.2584 40.7741C90.5556 40.7741 90.8304 40.7486 91.083 40.6976C91.3356 40.6466 91.5361 40.5651 91.6847 40.453C91.8481 40.3306 91.9298 40.1675 91.9298 39.9637C91.9298 39.7394 91.8184 39.561 91.5956 39.4285C91.3876 39.296 91.1127 39.1889 90.771 39.1074C90.4441 39.0258 90.095 38.9494 89.7236 38.878C88.9659 38.7047 88.3864 38.4652 87.9853 38.1593C87.5841 37.8535 87.3836 37.4814 87.3836 37.0431C87.3836 36.7067 87.5024 36.3958 87.7401 36.1104C87.9927 35.8147 88.3567 35.5752 88.8321 35.3917C89.3224 35.2082 89.9241 35.1165 90.6373 35.1165C91.2761 35.1165 91.8481 35.1725 92.3533 35.2847C92.8584 35.3866 93.3338 35.5599 93.7795 35.8045L92.955 36.6914C92.6875 36.4977 92.3681 36.355 91.9967 36.2633C91.6253 36.1715 91.291 36.1206 90.9938 36.1104C90.7413 36.1002 90.4961 36.1257 90.2584 36.1868C90.0356 36.248 89.8498 36.3346 89.7013 36.4468C89.5527 36.5589 89.4784 36.6914 89.4784 36.8443C89.4784 37.0584 89.5824 37.2317 89.7904 37.3642C89.9984 37.4967 90.2658 37.6038 90.5927 37.6853C90.9344 37.7567 91.2687 37.8331 91.5956 37.9147C92.0561 38.0064 92.4647 38.1288 92.8213 38.2817C93.1778 38.4346 93.4601 38.6232 93.6681 38.8474C93.891 39.0717 94.0024 39.352 94.0024 39.6884C94.0024 40.0656 93.8687 40.4173 93.6013 40.7435C93.3487 41.0595 92.955 41.3144 92.4201 41.508C91.9001 41.6915 91.2316 41.7833 90.4144 41.7833Z" fill="#45B4E4"/>
<path d="M96.9046 35.3305H98.9771V41.6609H96.9046V35.3305ZM96.7486 33.0369C96.7486 32.8126 96.8749 32.6241 97.1274 32.4711C97.3949 32.3182 97.6846 32.2418 97.9966 32.2418C98.3086 32.2418 98.5834 32.3182 98.8211 32.4711C99.0737 32.6241 99.2 32.8126 99.2 33.0369C99.2 33.2714 99.0737 33.465 98.8211 33.618C98.5834 33.7607 98.3086 33.832 97.9966 33.832C97.6846 33.832 97.3949 33.7556 97.1274 33.6027C96.8749 33.4498 96.7486 33.2612 96.7486 33.0369Z" fill="#45B4E4"/>
<path d="M105.148 41.7833C104.494 41.7833 103.856 41.7068 103.232 41.5539C102.622 41.3908 102.117 41.1512 101.716 40.8352L102.585 40.0095C102.972 40.2644 103.365 40.4581 103.766 40.5906C104.182 40.7129 104.591 40.7741 104.992 40.7741C105.289 40.7741 105.564 40.7486 105.817 40.6976C106.069 40.6466 106.27 40.5651 106.418 40.453C106.582 40.3306 106.664 40.1675 106.664 39.9637C106.664 39.7394 106.552 39.561 106.329 39.4285C106.121 39.296 105.846 39.1889 105.505 39.1074C105.178 39.0258 104.829 38.9494 104.457 38.878C103.7 38.7047 103.12 38.4652 102.719 38.1593C102.318 37.8535 102.117 37.4814 102.117 37.0431C102.117 36.7067 102.236 36.3958 102.474 36.1104C102.726 35.8147 103.09 35.5752 103.566 35.3917C104.056 35.2082 104.658 35.1165 105.371 35.1165C106.01 35.1165 106.582 35.1725 107.087 35.2847C107.592 35.3866 108.068 35.5599 108.513 35.8045L107.689 36.6914C107.421 36.4977 107.102 36.355 106.73 36.2633C106.359 36.1715 106.025 36.1206 105.728 36.1104C105.475 36.1002 105.23 36.1257 104.992 36.1868C104.769 36.248 104.584 36.3346 104.435 36.4468C104.286 36.5589 104.212 36.6914 104.212 36.8443C104.212 37.0584 104.316 37.2317 104.524 37.3642C104.732 37.4967 105 37.6038 105.326 37.6853C105.668 37.7567 106.002 37.8331 106.329 37.9147C106.79 38.0064 107.198 38.1288 107.555 38.2817C107.912 38.4346 108.194 38.6232 108.402 38.8474C108.625 39.0717 108.736 39.352 108.736 39.6884C108.736 40.0656 108.602 40.4173 108.335 40.7435C108.082 41.0595 107.689 41.3144 107.154 41.508C106.634 41.6915 105.965 41.7833 105.148 41.7833Z" fill="#45B4E4"/>
<path d="M112.53 32.5476H114.602V35.3611H117.143V36.4773H114.602V41.6609H112.53V36.4773H110.836V35.3611H112.53V32.5476Z" fill="#45B4E4"/>
</svg>
